<svg xmlns="http://www.w3.org/2000/svg" width="512" height="512" viewBox="0 0 24 24" fill="none">
  <!-- Duck Body (Mallard Teal) -->
  <path
    d="M19.5 10.5c0-1.5-.5-3-1.5-4-1-1-2.5-2-4.5-2.5-.5-1.5-2-2.5-3.5-2.5-2 0-3.5 1.5-3.5 3.5 0 .3 0 .7.1 1C4.5 7 3 9 3 11.5c0 3 2 5.5 5 6.5v2c0 1.1.9 2 2 2h4c1.1 0 2-.9 2-2v-2c2.5-.8 4-3 4-5.5h-.5z"
    fill="#0D5C4D"
  />
  <!-- Duck Eye (Obsidian Slate) -->
  <circle cx="8.5" cy="9" r="1" fill="#0B0F12" />
  <!-- Duck Beak (Beak Gold) -->
  <path
    d="M12 11.5c.8 0 1.5.3 2 .8"
    stroke="#F2A900"
    stroke-width="1.5"
    stroke-linecap="round"
    fill="none"
  />
</svg>
